<svg width="2349" height="1561" viewBox="0 0 2349 1561" fill="none" xmlns="http://www.w3.org/2000/svg">
<path d="M286.714 350.429C195.694 634.109 10.9224 1203.29 0 1210.57L846.49 1333.45L600.735 1561L2220.9 1210.57L2348.33 350.429L1642.92 232.102L1888.67 0L286.714 350.429Z" fill="#FEC40B"/>
<path d="M118.327 1142.31L327.674 477.857L336.776 450.55H2257.31L2138.98 1142.31H118.327Z" fill="white"/>
<path d="M645.111 893.758H521.088L484.467 967H405.609L595.551 611.531H661.713L729.34 967H656.342L645.111 893.758ZM550.385 834.432H636.078L616.059 702.107L550.385 834.432ZM905.365 821.736H862.641L837.25 967H765.717L827.484 611.531H899.018L874.115 753.865H903.9L1013.03 611.531H1104.83L966.156 783.406L1050.63 967H968.842L905.365 821.736ZM1358 670.857H1204.19L1192.23 739.705L1238.86 739.949C1277.76 740.112 1308.28 750.203 1330.41 770.223C1352.55 790.242 1362.4 816.854 1359.96 850.057C1357.35 885.376 1342.54 913.696 1315.52 935.018C1288.5 956.339 1254.08 967 1212.25 967H1080.41L1142.18 611.531H1368.26L1358 670.857ZM1181.98 798.787L1162.93 908.162L1215.18 908.406C1234.06 908.406 1250.25 903.117 1263.76 892.537C1277.44 881.795 1285.65 867.391 1288.42 849.324C1290.54 834.513 1287.53 822.632 1279.39 813.68C1271.25 804.565 1258.96 799.682 1242.52 799.031L1181.98 798.787ZM1619.72 967H1382.9L1390.96 915.73L1517.18 797.322C1543.06 773.071 1560.23 753.377 1568.7 738.24C1577.16 723.104 1580.33 708.292 1578.22 693.807C1574.8 673.624 1563.16 663.289 1543.3 662.801C1527.68 662.475 1514.58 667.928 1504 679.158C1493.58 690.389 1487.23 705.118 1484.96 723.348L1416.11 723.592C1417.41 701.456 1424 681.355 1435.88 663.289C1447.76 645.223 1463.55 631.225 1483.25 621.297C1503.1 611.206 1524.51 606.242 1547.46 606.404C1580.5 607.055 1606.21 616.333 1624.6 634.236C1643 652.14 1651.13 675.984 1649.02 705.77C1646.41 739.298 1626.64 774.292 1589.69 810.75L1554.54 844.197L1481.78 909.627L1628.75 910.115L1619.72 967ZM1887.54 833.211H1926.61L1916.6 890.096H1877.53L1864.11 967H1795.26L1808.69 890.096H1667.57L1672.46 842L1853.85 611.531H1925.87L1887.54 833.211ZM1743.99 832.723L1818.7 833.211L1842.87 706.746L1836.52 715.535L1743.99 832.723Z" fill="black"/>
<path d="M1490.91 1103.75C1494.67 1103.75 1497.58 1104.83 1499.63 1106.99C1501.67 1109.09 1502.7 1111.75 1502.7 1114.96C1502.7 1118.11 1501.67 1120.74 1499.63 1122.84C1497.58 1124.89 1494.67 1125.91 1490.91 1125.91C1487.31 1125.91 1484.46 1124.89 1482.36 1122.84C1480.26 1120.79 1479.21 1118.17 1479.21 1114.96C1479.21 1111.75 1480.23 1109.09 1482.28 1106.99C1484.32 1104.83 1487.2 1103.75 1490.91 1103.75ZM1554.99 1004.14L1589.86 1096.78L1624.64 1004.14H1651.78V1125H1630.86V1085.16L1632.94 1031.87L1597.24 1125H1582.22L1546.61 1031.95L1548.68 1085.16V1125H1527.77V1004.14H1554.99ZM1670.95 1079.26C1670.95 1070.46 1672.7 1062.55 1676.18 1055.52C1679.67 1048.44 1684.57 1043.02 1690.88 1039.25C1697.18 1035.43 1704.43 1033.53 1712.62 1033.53C1724.74 1033.53 1734.57 1037.43 1742.09 1045.23C1749.67 1053.03 1753.77 1063.38 1754.38 1076.27L1754.46 1081.01C1754.46 1089.86 1752.74 1097.77 1749.31 1104.75C1745.94 1111.72 1741.07 1117.11 1734.7 1120.93C1728.4 1124.75 1721.09 1126.66 1712.79 1126.66C1700.12 1126.66 1689.96 1122.45 1682.33 1114.04C1674.74 1105.58 1670.95 1094.31 1670.95 1080.26V1079.26ZM1691.12 1081.01C1691.12 1090.25 1693.03 1097.5 1696.85 1102.75C1700.67 1107.96 1705.98 1110.56 1712.79 1110.56C1719.6 1110.56 1724.88 1107.9 1728.64 1102.59C1732.46 1097.28 1734.37 1089.5 1734.37 1079.26C1734.37 1070.19 1732.41 1062.99 1728.48 1057.68C1724.6 1052.37 1719.32 1049.71 1712.62 1049.71C1706.04 1049.71 1700.81 1052.34 1696.94 1057.6C1693.06 1062.8 1691.12 1070.6 1691.12 1081.01ZM1808.42 1110.56C1813.45 1110.56 1817.63 1109.09 1820.95 1106.16C1824.27 1103.22 1826.04 1099.6 1826.26 1095.28H1845.27C1845.05 1100.87 1843.31 1106.1 1840.04 1110.97C1836.78 1115.79 1832.35 1119.6 1826.76 1122.43C1821.17 1125.25 1815.14 1126.66 1808.66 1126.66C1796.1 1126.66 1786.14 1122.59 1778.78 1114.46C1771.42 1106.32 1767.74 1095.09 1767.74 1080.76V1078.68C1767.74 1065.01 1771.39 1054.08 1778.7 1045.89C1786 1037.65 1795.96 1033.53 1808.58 1033.53C1819.26 1033.53 1827.95 1036.65 1834.65 1042.91C1841.4 1049.1 1844.94 1057.27 1845.27 1067.39H1826.26C1826.04 1062.25 1824.27 1058.01 1820.95 1054.69C1817.68 1051.37 1813.51 1049.71 1808.42 1049.71C1801.89 1049.71 1796.85 1052.09 1793.31 1056.85C1789.77 1061.55 1787.97 1068.72 1787.91 1078.35V1081.59C1787.91 1091.33 1789.66 1098.6 1793.14 1103.42C1796.68 1108.18 1801.77 1110.56 1808.42 1110.56ZM1892.42 1089.47H1882.21V1125H1862.04V1035.19H1882.21V1071.04H1891.09L1915.91 1035.19H1940.81L1908.36 1078.18L1943.55 1125H1917.32L1892.42 1089.47ZM1956.17 1125V1035.19H1992.61C2004.89 1035.19 2014.25 1037.34 2020.67 1041.66C2027.09 1045.92 2030.29 1052.06 2030.29 1060.09C2030.29 1064.24 2028.99 1067.97 2026.39 1071.29C2023.85 1074.56 2020.06 1077.08 2015.02 1078.85C2020.89 1080.07 2025.54 1082.53 2028.97 1086.24C2032.4 1089.94 2034.11 1094.31 2034.11 1099.35C2034.11 1107.71 2031.01 1114.07 2024.82 1118.44C2018.67 1122.81 2009.82 1125 1998.25 1125H1956.17ZM1976.34 1086.73V1109.06H1998.42C2008.77 1109.06 2013.94 1105.35 2013.94 1097.94C2013.94 1090.47 2008.69 1086.73 1998.17 1086.73H1976.34ZM1976.34 1072.29H1992.94C2004.4 1072.29 2010.12 1068.91 2010.12 1062.16C2010.12 1055.08 2004.7 1051.43 1993.85 1051.21H1976.34V1072.29ZM2105.25 1125C2104.37 1123.28 2103.59 1120.49 2102.93 1116.62C2096.51 1123.31 2088.65 1126.66 2079.35 1126.66C2070.33 1126.66 2062.97 1124.09 2057.27 1118.94C2051.57 1113.79 2048.72 1107.43 2048.72 1099.85C2048.72 1090.28 2052.26 1082.94 2059.35 1077.85C2066.49 1072.71 2076.67 1070.13 2089.89 1070.13H2102.26V1064.24C2102.26 1059.59 2100.96 1055.88 2098.36 1053.12C2095.76 1050.29 2091.8 1048.88 2086.49 1048.88C2081.9 1048.88 2078.14 1050.04 2075.2 1052.37C2072.27 1054.64 2070.8 1057.54 2070.8 1061.08H2050.63C2050.63 1056.16 2052.26 1051.57 2055.53 1047.3C2058.79 1042.99 2063.22 1039.61 2068.81 1037.18C2074.46 1034.74 2080.74 1033.53 2087.65 1033.53C2098.17 1033.53 2106.55 1036.18 2112.8 1041.49C2119.06 1046.75 2122.27 1054.17 2122.43 1063.74V1104.25C2122.43 1112.33 2123.57 1118.77 2125.84 1123.59V1125H2105.25ZM2083.09 1110.47C2087.07 1110.47 2090.81 1109.51 2094.29 1107.57C2097.84 1105.63 2100.49 1103.03 2102.26 1099.77V1082.83H2091.39C2083.92 1082.83 2078.3 1084.13 2074.54 1086.73C2070.78 1089.33 2068.89 1093.01 2068.89 1097.77C2068.89 1101.65 2070.17 1104.75 2072.71 1107.07C2075.31 1109.34 2078.77 1110.47 2083.09 1110.47Z" fill="black"/>
</svg>
