<?xml version="1.0" standalone="no"?>
<!DOCTYPE svg PUBLIC "-//W3C//DTD SVG 20010904//EN"
 "http://www.w3.org/TR/2001/REC-SVG-20010904/DTD/svg10.dtd">
<svg version="1.0" xmlns="http://www.w3.org/2000/svg"
 width="327.000000pt" height="327.000000pt" viewBox="0 0 327.000000 327.000000"
 preserveAspectRatio="xMidYMid meet">
<metadata>
Created by potrace 1.11, written by Peter Selinger 2001-2013
</metadata>
<g transform="translate(0.000000,327.000000) scale(0.100000,-0.100000)"
fill="#000000" stroke="none">
<path d="M696 3102 c-3 -15 -8 -47 -12 -72 -3 -25 -8 -54 -10 -65 -2 -11 -24
-146 -49 -300 -25 -154 -48 -291 -50 -305 -2 -14 -7 -43 -10 -65 -4 -22 -15
-92 -26 -155 -11 -63 -22 -128 -24 -145 -6 -48 -15 -108 -21 -135 -3 -14 -7
-36 -9 -50 -4 -29 -34 -213 -40 -250 -3 -14 -8 -46 -11 -73 l-7 -48 29 12 c16
6 103 35 194 63 l166 52 1 -55 c0 -31 4 -227 8 -436 7 -412 13 -735 16 -913 0
-63 5 -110 10 -105 4 4 92 258 194 563 103 305 234 695 291 865 58 171 107
317 109 325 2 8 4 15 4 15 4 0 118 351 115 354 -2 2 -81 -20 -176 -49 -95 -29
-182 -55 -192 -58 -17 -5 -18 -1 -11 34 4 21 9 53 11 69 2 17 9 55 14 85 6 30
24 141 40 245 17 105 33 202 35 218 3 15 7 42 10 60 3 17 10 57 16 87 20 110
22 157 7 157 -13 1 -129 18 -178 27 -55 10 -337 56 -375 61 -22 3 -45 8 -52
10 -6 2 -14 -8 -17 -23z"/>
<path d="M1631 1945 c-40 -121 -99 -301 -131 -400 -32 -99 -118 -362 -190
-585 -72 -223 -169 -521 -216 -663 -46 -142 -84 -263 -84 -270 0 -9 72 -12
312 -11 l313 0 12 35 c6 18 31 106 54 194 24 88 47 163 51 166 5 3 163 5 351
5 l342 -1 32 -125 c18 -69 35 -134 38 -145 6 -25 22 -84 30 -110 6 -19 15 -20
318 -20 l312 1 -3 24 c-2 13 -14 54 -27 90 -13 36 -61 182 -108 325 -154 470
-489 1488 -526 1600 l-37 110 -386 0 -385 1 -72 -221z m494 -290 c6 -25 112
-436 155 -600 18 -66 34 -129 36 -141 4 -21 2 -21 -221 -21 -124 0 -225 2
-225 6 0 3 5 22 11 41 5 19 12 42 14 50 1 8 17 69 35 135 17 66 33 131 36 145
3 14 16 66 29 117 14 50 38 154 55 230 17 76 33 149 36 163 6 25 9 15 39 -125z"/>
</g>
</svg>
